<?xml version="1.0" ?><svg data-name="Layer 1" height="88" id="Layer_1" viewBox="0 0 88 88" width="88" xmlns="http://www.w3.org/2000/svg"><defs><style>.cls-1{fill:#e10018;}.cls-2{fill:#010200;}</style></defs><title/><path class="cls-1" d="M59.8,54.46H55.12a1.11,1.11,0,0,0-2.22,0H48.22a5.79,5.79,0,0,1,11.58,0Z"/><path class="cls-2" d="M72.72,46.19c-8.38-11.27-7-27.83-7-28l.28-3H53.87v.12c-3,3.43-6,5.21-9.29,5.21h0c-5.81,0-10.38-5.26-10.42-5.32h0v0H22l.28,3c0,.16,1.45,16.67-7,28a17.22,17.22,0,0,0-3.61,12.36c.65,5.13,3.85,9.75,9.52,13.74l.71.5H66.1l.71-.5c5.67-4,8.87-8.61,9.52-13.74A17.22,17.22,0,0,0,72.72,46.19ZM44.56,25.81a15.2,15.2,0,0,0,9.3-3.29c-.46,9.44-3,13.73-5.17,15.68A6.71,6.71,0,0,1,44.18,40v0L44,40l-.18,0v0a6.71,6.71,0,0,1-4.51-1.82c-2.23-2-4.79-6.38-5.19-16.12A18.05,18.05,0,0,0,44.56,25.81ZM34.17,15.26l0,.05h0Zm36.74,42.6c-.43,3.36-2.63,6.54-6.56,9.47H23.65c-3.91-2.91-6.11-6.08-6.55-9.41a11.8,11.8,0,0,1,2.4-8.27l.11-.14c7.48-10,8.27-23,8.2-28.83h.8c.19,10.47,2.62,17.79,7.25,21.76a12.42,12.42,0,0,0,16.28,0c4.63-4,7.06-11.29,7.25-21.77h.8c-.07,5.8.72,18.83,8.2,28.84l.11.14a11.82,11.82,0,0,1,2.41,8.21Z"/></svg>