<?xml version="1.0" ?><svg height="256px" version="1.1" viewBox="0 0 222 256" width="222px" xmlns="http://www.w3.org/2000/svg" xmlns:xlink="http://www.w3.org/1999/xlink"><title/><desc/><defs><linearGradient id="linearGradient-1" x1="61.4788877%" x2="0%" y1="39.463838%" y2="75.4975872%"><stop offset="0%" stop-color="#EC9D73"/><stop offset="100%" stop-color="#BC6075"/></linearGradient><linearGradient id="linearGradient-2" x1="50%" x2="50%" y1="0%" y2="100%"><stop offset="0%" stop-color="#E49670"/><stop offset="100%" stop-color="#893E56"/></linearGradient></defs><g fill="none" fill-rule="evenodd" id="Classic" stroke="none" stroke-width="1"><g id="Monaco" transform="translate(-5223.000000, -5445.000000)"><g transform="translate(5223.000000, 5445.000000)"><polygon fill="url(#linearGradient-1)" id="Path" points="110.422808 4.54747351e-13 0 63.9846314 0 192.037189 110.422808 255.998666"/><polygon fill="url(#linearGradient-2)" id="Path" points="110.422808 4.54747351e-13 110.422808 255.998666 221.817794 192.032066 221.817794 63.9846314"/><path d="M56.6220317,99.957308 L66.6240326,55.4797801 L153.965449,55.4797801 L164.50533,100.014989 L56.6220317,99.957308 Z M91.7532596,131.589757 L82.2315596,106.773012 L138.844678,106.773012 L129.514975,131.589757 L132.269841,159.318735 L88.836005,159.404489 L91.7532596,131.589757 Z M119.495147,188.749668 L119.456728,179.891353 L138.96127,161.165353 L138.96127,131.589757 L164.551434,114.941099 L193.759633,136.930134 L154.058989,206.113039 L138.335075,206.113039 L119.495147,188.749668 Z M27.0220512,136.930134 L56.2865997,115.142215 L82.1547196,131.589757 L82.1547196,161.161665 L101.725959,179.92588 L101.716841,188.727948 L82.8590859,206.314052 L66.9212496,206.314052 L27.0220512,136.930134 Z" fill="#FFFFFF" id="Fill-1"/></g></g></g></svg>